<svg xmlns="http://www.w3.org/2000/svg" viewBox="0 0 160 240" fill="none">
  <rect width="160" height="240" fill="#E5E7EB"/>
  <path d="M80 80L80 160M80 80C74.4772 80 69.4772 82.3905 66 86.25M80 80C85.5228 80 90.5228 82.3905 94 86.25M80 160C74.4772 160 69.4772 157.61 66 153.75M80 160C85.5228 160 90.5228 157.61 94 153.75M66 86.25L66 153.75M66 86.25C59.25 86.25 54 92.477 54 100L54 140C54 147.523 59.25 153.75 66 153.75M94 86.25L94 153.75M94 86.25C100.75 86.25 106 92.477 106 100L106 140C106 147.523 100.75 153.75 94 153.75" stroke="#9CA3AF" stroke-width="4" stroke-linecap="round" stroke-linejoin="round"/>
</svg>
